<?xml version="1.0" encoding="UTF-8" standalone="no"?>
<!-- Created with Inkscape (http://www.inkscape.org/) -->

<svg
   xmlns:dc="http://purl.org/dc/elements/1.1/"
   xmlns:cc="http://creativecommons.org/ns#"
   xmlns:rdf="http://www.w3.org/1999/02/22-rdf-syntax-ns#"
   xmlns:svg="http://www.w3.org/2000/svg"
   xmlns="http://www.w3.org/2000/svg"
   xmlns:sodipodi="http://sodipodi.sourceforge.net/DTD/sodipodi-0.dtd"
   xmlns:inkscape="http://www.inkscape.org/namespaces/inkscape"
   width="210mm"
   height="297mm"
   viewBox="0 0 210 297"
   version="1.1"
   id="svg8"
   inkscape:version="0.92.1 r15371"
   sodipodi:docname="vermelho.svg">
  <defs
     id="defs2">
    <inkscape:path-effect
       effect="bspline"
       id="path-effect933"
       is_visible="true"
       weight="33.333333"
       steps="2"
       helper_size="0"
       apply_no_weight="true"
       apply_with_weight="true"
       only_selected="false" />
    <inkscape:path-effect
       effect="bspline"
       id="path-effect929"
       is_visible="true"
       weight="33.333333"
       steps="2"
       helper_size="0"
       apply_no_weight="true"
       apply_with_weight="true"
       only_selected="false" />
    <inkscape:path-effect
       effect="bspline"
       id="path-effect925"
       is_visible="true"
       weight="33.333333"
       steps="2"
       helper_size="0"
       apply_no_weight="true"
       apply_with_weight="true"
       only_selected="false" />
    <inkscape:path-effect
       effect="bspline"
       id="path-effect913"
       is_visible="true"
       weight="33.333333"
       steps="2"
       helper_size="0"
       apply_no_weight="true"
       apply_with_weight="true"
       only_selected="false" />
    <inkscape:path-effect
       effect="bspline"
       id="path-effect909"
       is_visible="true"
       weight="33.333333"
       steps="2"
       helper_size="0"
       apply_no_weight="true"
       apply_with_weight="true"
       only_selected="false" />
  </defs>
  <sodipodi:namedview
     id="base"
     pagecolor="#ffffff"
     bordercolor="#666666"
     borderopacity="1.0"
     inkscape:pageopacity="0.0"
     inkscape:pageshadow="2"
     inkscape:zoom="0.24748737"
     inkscape:cx="-94.872486"
     inkscape:cy="531.28169"
     inkscape:document-units="mm"
     inkscape:current-layer="layer1"
     showgrid="false"
     inkscape:window-width="1366"
     inkscape:window-height="706"
     inkscape:window-x="-8"
     inkscape:window-y="-8"
     inkscape:window-maximized="1" />
  <metadata
     id="metadata5">
    <rdf:RDF>
      <cc:Work
         rdf:about="">
        <dc:format>image/svg+xml</dc:format>
        <dc:type
           rdf:resource="http://purl.org/dc/dcmitype/StillImage" />
        <dc:title></dc:title>
      </cc:Work>
    </rdf:RDF>
  </metadata>
  <g
     inkscape:label="Camada 1"
     inkscape:groupmode="layer"
     id="layer1">
    <ellipse
       style="opacity:1;fill:#ffffff;fill-opacity:1;stroke:none;stroke-width:0.87827528;stroke-miterlimit:4;stroke-dasharray:none;stroke-opacity:1"
       id="path2494-0"
       cx="-82.319016"
       cy="109.93282"
       rx="54.522984"
       ry="52.919365" />
    <ellipse
       style="opacity:1;fill:#ffffff;fill-opacity:1;stroke:none;stroke-width:0.87827528;stroke-miterlimit:4;stroke-dasharray:none;stroke-opacity:1"
       id="path2494-7"
       cx="-283.32715"
       cy="108.35606"
       rx="54.522984"
       ry="52.919365" />
    <g
       id="g2589">
      <g
         style="opacity:1"
         transform="translate(-1.0690781,-12.828937)"
         id="g2461">
        <path
           style="opacity:1;fill:#e20e19;fill-opacity:1;stroke:none;stroke-width:0.85972065;stroke-opacity:1"
           d="M 82.872753,212.23097 C 67.357733,182.86888 48.12047,155.95602 48.12047,155.60931 c 0,-0.34671 3.301133,3.6186 5.539203,5.05523 6.24535,4.00882 19.34928,11.62259 27.26113,13.55273 26.694517,6.51222 55.074637,2.15264 77.331827,-11.87926 3.36922,-2.12409 5.80119,-4.61793 5.98187,-4.61793 0.18067,0 -19.5384,25.41888 -35.69471,55.56248 -16.15631,30.14359 -22.37687,54.80654 -22.52641,54.80654 -0.14955,0 -7.625587,-26.49601 -23.140627,-55.85813 z"
           id="path941"
           inkscape:connector-curvature="0"
           sodipodi:nodetypes="sscssssss" />
        <ellipse
           style="opacity:1;fill:#e20e19;fill-opacity:1;stroke:none;stroke-width:0.26212156;stroke-opacity:1"
           id="path943"
           cx="107.34526"
           cy="112.54762"
           rx="74.839287"
           ry="70.303574" />
      </g>
      <g
         id="g2580">
        <g
           id="g2575">
          <ellipse
             ry="52.919365"
             rx="54.522984"
             cy="97.066261"
             cx="106.88632"
             id="path2494"
             style="opacity:1;fill:#000000;fill-opacity:1;stroke:none;stroke-width:0.87827528;stroke-miterlimit:4;stroke-dasharray:none;stroke-opacity:1" />
          <path
             inkscape:connector-curvature="0"
             style="opacity:1;fill:#ffffff;fill-opacity:1;stroke:none;stroke-width:0.26906717;stroke-opacity:1"
             d="m 106.64025,43.735289 a 55.954687,53.347024 0 0 0 -55.954246,53.34711 55.954687,53.347024 0 0 0 55.954246,53.347111 55.954687,53.347024 0 0 0 55.95484,-53.347111 55.954687,53.347024 0 0 0 -55.95484,-53.34711 z m 0.60172,7.83761 c 0.24256,-0.0012 0.48605,0.0044 0.72608,0.01667 0.96019,0.04946 1.86426,0.201289 3.85242,0.576028 1.98814,0.37475 5.06007,0.972339 7.94805,1.739009 2.88799,0.766682 5.58068,1.698111 7.5841,2.555691 2.00342,0.857569 3.29487,1.633308 5.03403,2.759558 1.73917,1.126251 3.92544,2.603423 6.13923,4.578396 2.21378,1.974972 4.45559,4.448445 6.10466,6.568961 1.64904,2.120527 2.70577,3.888209 3.69166,5.569095 0.98588,1.680873 1.90134,3.275529 2.44088,4.554279 0.53953,1.278751 0.7037,2.242832 0.43431,3.131141 -0.26937,0.888309 -0.97302,1.701945 -1.48916,2.191565 -0.51613,0.48962 -0.84569,0.655857 -1.35631,0.819538 -0.51063,0.163692 -1.20211,0.324817 -2.08603,0.05346 -0.88394,-0.271406 -1.95961,-0.974939 -2.72539,-1.776918 -0.76579,-0.801967 -1.2216,-1.701901 -1.62261,-2.618271 -0.40099,-0.916393 -0.75846,-1.879173 -1.17313,-2.711903 -0.41467,-0.832719 -0.92451,-1.62036 -1.25138,-2.162848 -0.32687,-0.542488 -0.50231,-0.888831 -0.99783,-1.583375 -0.49551,-0.694543 -1.31121,-1.737375 -2.1291,-2.660202 -0.81791,-0.922839 -1.63785,-1.725829 -2.36931,-2.406935 -0.73147,-0.681108 -1.39205,-1.256358 -2.22313,-1.948634 -0.83108,-0.692276 -1.86865,-1.53233 -3.23067,-2.446566 -1.36201,-0.914237 -3.04918,-1.902402 -4.59425,-2.716483 -1.54508,-0.814092 -2.94834,-1.454823 -4.44384,-1.993432 -1.49549,-0.53862 -3.08378,-0.975561 -4.36557,-1.287609 -1.28178,-0.312035 -2.25812,-0.4994 -3.28887,-0.65299 -1.0308,-0.1536 -2.11684,-0.273426 -3.1488,-0.358368 -1.03195,-0.08491 -2.0107,-0.134818 -2.9492,-0.389953 -0.93849,-0.255145 -1.89353,-0.74491 -2.39842,-1.357102 -0.5049,-0.612181 -0.67195,-1.404212 -0.62115,-2.227751 0.0509,-0.823528 0.31951,-1.676851 0.72973,-2.305847 0.4102,-0.629005 0.96129,-1.032662 1.74513,-1.260613 0.58788,-0.170982 1.30619,-0.242932 2.03387,-0.247533 z m 9.08723,18.30097 c 0.32771,-0.0022 0.65983,0.024 1.01055,0.06602 0.93531,0.112258 2.0065,0.336986 3.09601,0.941298 1.08952,0.604313 2.19758,1.588332 3.00563,2.537876 0.80803,0.949544 1.32337,1.878673 1.75543,3.140899 0.43208,1.262235 0.79607,2.88563 0.90502,4.223483 0.10898,1.337854 -0.0367,2.391355 -0.39063,3.565316 -0.35405,1.173972 -0.91721,2.469271 -1.46185,3.513637 -0.54467,1.044343 -1.07172,1.83922 -1.82522,2.547066 -0.7535,0.707836 -1.73384,1.329185 -2.4421,1.743599 -0.70825,0.414427 -1.14452,0.622261 -1.62565,0.760391 -0.48112,0.138132 -1.00779,0.206891 -1.73422,0.120606 -0.72643,-0.08625 -1.65284,-0.328329 -2.49729,-0.682286 -0.84449,-0.353957 -1.62008,-0.827239 -2.31291,-1.444954 -0.69282,-0.617726 -1.32821,-1.395 -1.85493,-2.154824 -0.52671,-0.759813 -0.94829,-1.509547 -1.27322,-2.188121 -0.32493,-0.678561 -0.56079,-1.299778 -0.71516,-2.249566 -0.15437,-0.949789 -0.22739,-2.227106 -0.18197,-3.505013 0.0455,-1.277918 0.20878,-2.555135 0.6175,-3.781264 0.40872,-1.226128 1.06239,-2.399611 1.61654,-3.237387 0.55414,-0.837785 1.00781,-1.33853 1.78881,-1.942898 0.78101,-0.604367 1.88823,-1.312081 2.84184,-1.666071 0.59603,-0.221237 1.13162,-0.304123 1.67782,-0.307835 z m -20.021498,0.215948 c 0.327726,-0.0022 0.658612,0.02333 1.009359,0.06546 0.93532,0.112259 2.007689,0.337553 3.097219,0.941865 1.08953,0.604312 2.19697,1.587754 3.00501,2.537309 0.80804,0.949533 1.32399,1.878673 1.75605,3.140899 0.43207,1.262225 0.79548,2.886197 0.90442,4.22405 0.10897,1.337853 -0.036,2.391354 -0.39002,3.565327 -0.35406,1.173961 -0.91722,2.469271 -1.46188,3.513625 -0.54465,1.044356 -1.07171,1.839221 -1.82521,2.547067 -0.75348,0.707847 -1.73445,1.329184 -2.442702,1.74361 -0.708257,0.414414 -1.144525,0.621672 -1.625647,0.759814 -0.481127,0.138119 -1.007792,0.20689 -1.734215,0.120605 -0.726435,-0.08624 -1.652818,-0.327751 -2.497304,-0.681708 -0.844485,-0.353957 -1.61947,-0.827818 -2.312298,-1.445543 -0.69283,-0.617727 -1.328824,-1.394988 -1.855534,-2.154814 -0.526713,-0.759813 -0.948298,-1.50898 -1.273221,-2.187552 -0.324922,-0.678562 -0.561398,-1.300357 -0.715764,-2.250145 -0.154372,-0.949789 -0.226794,-2.227096 -0.181368,-3.505014 0.04543,-1.277905 0.209386,-2.555123 0.618106,-3.781263 0.408709,-1.226128 1.061793,-2.3996 1.615937,-3.237387 0.554144,-0.837774 1.008408,-1.337942 1.789427,-1.94231 0.781005,-0.604378 1.887603,-1.312091 2.841228,-1.666081 0.596001,-0.221238 1.132198,-0.304123 1.678407,-0.307824 z M 81.667231,86.486376 c 0.42229,0.0079 0.855954,0.05758 1.278068,0.156779 0.844216,0.198533 1.64365,0.595699 2.397213,1.096366 0.753549,0.500667 1.461885,1.104801 2.052064,1.734986 0.590183,0.630184 1.062453,1.286531 1.525556,2.313903 0.463115,1.027373 0.916757,2.425418 1.043928,3.703147 0.12717,1.277739 -0.07219,2.434552 -0.362731,3.427484 -0.290575,0.992941 -0.671853,1.821729 -1.180406,2.538459 -0.508564,0.71673 -1.143974,1.32039 -1.77972,1.76944 -0.635748,0.44907 -1.270779,0.74271 -1.988376,0.90683 -0.717607,0.16413 -1.516737,0.1986 -2.388725,0.0173 -0.871975,-0.18135 -1.815825,-0.5783 -2.633172,-1.09636 -0.817346,-0.51807 -1.507112,-1.15661 -1.997483,-1.69191 -0.49037,-0.53533 -0.781322,-0.96719 -1.108217,-1.718343 -0.326906,-0.751146 -0.689508,-1.821621 -0.880156,-2.952528 -0.190652,-1.130918 -0.209222,-2.322894 -0.17288,-3.237964 0.03639,-0.915071 0.127264,-1.553335 0.354244,-2.252446 0.226967,-0.699122 0.590004,-1.459781 1.053024,-2.124373 0.463033,-0.664614 1.026461,-1.235152 1.616547,-1.658034 0.590086,-0.422895 1.208332,-0.698723 1.961694,-0.836776 0.376675,-0.06901 0.787215,-0.103462 1.209528,-0.0959 z m 51.387269,0.01323 c 0.5347,0.012 1.04914,0.108136 1.5844,0.30898 0.71368,0.267727 1.46554,0.722206 2.06602,1.320339 0.60047,0.598122 1.05135,1.340476 1.40485,2.147344 0.35347,0.806879 0.61024,1.678607 0.75275,2.511458 0.14252,0.832853 0.17067,1.62704 -0.0181,2.730275 -0.1888,1.103245 -0.59532,2.515171 -1.20891,3.658352 -0.61359,1.143196 -1.43467,2.017516 -2.24011,2.707296 -0.80545,0.68979 -1.59457,1.19482 -2.42816,1.54031 -0.83357,0.34548 -1.71044,0.53105 -2.50033,0.58579 -0.78989,0.0547 -1.49215,-0.0218 -2.19036,-0.24926 -0.69822,-0.22749 -1.39119,-0.6054 -2.02478,-1.20317 -0.63358,-0.59779 -1.20632,-1.41443 -1.60381,-2.26853 -0.39748,-0.8541 -0.61912,-1.74468 -0.73092,-2.446548 -0.11187,-0.701879 -0.11316,-1.214616 -0.11398,-1.470817 -9.4e-4,-0.256202 -0.001,-0.256145 0.1474,-0.800589 0.14876,-0.544443 0.44605,-1.633231 0.92322,-2.684898 0.47717,-1.051666 1.13448,-2.066703 1.68144,-2.820437 0.54695,-0.753735 0.98385,-1.246389 1.56985,-1.720639 0.586,-0.474239 1.3221,-0.930707 2.08784,-1.255435 0.76574,-0.324727 1.56236,-0.51896 2.29896,-0.574883 0.18415,-0.014 0.36465,-0.01889 0.54289,-0.01489 z m -26.44519,9.044235 c 0.40014,0.0012 0.78903,0.0079 1.15676,0.01156 1.4709,0.01723 2.597,0.01657 3.75899,0.379051 1.16198,0.362525 2.36105,1.08802 3.34166,1.77864 0.9806,0.690614 1.74341,1.347071 2.36083,2.020429 0.61742,0.673349 1.08989,1.364069 1.63473,2.365579 0.54484,1.0015 1.16248,2.31384 1.61656,3.09093 0.45405,0.77709 0.74409,1.01819 1.49702,1.52423 0.75296,0.50601 1.93494,1.25517 3.04263,2.49823 1.1077,1.24307 2.1245,2.97036 2.68655,4.8179 0.56207,1.84754 0.67367,3.8846 0.56474,5.47318 -0.10897,1.58858 -0.43601,2.76282 -0.98085,3.83351 -0.54485,1.07069 -1.30779,2.03694 -2.28863,3.07314 -0.98084,1.0362 -2.17913,2.14092 -3.59584,2.91807 -1.4167,0.77716 -3.05056,1.22624 -4.68523,1.43348 -1.63467,0.20724 -3.26855,0.17229 -4.68524,-0.0867 -1.41671,-0.25902 -2.61538,-0.74248 -3.41447,-1.05328 -0.79907,-0.31081 -1.19786,-0.44858 -1.76091,-0.41407 -0.56302,0.0344 -1.28924,0.24124 -2.18188,0.54617 -0.89263,0.30492 -2.01324,0.73113 -3.35743,0.93841 -1.344182,0.20727 -2.942049,0.20717 -4.360123,0.0391 -1.418056,-0.1681 -2.722157,-0.5225 -3.902752,-1.07511 -1.180594,-0.5526 -2.270523,-1.31202 -3.233094,-2.20993 -0.962571,-0.89793 -1.797407,-1.93424 -2.463335,-3.07602 -0.665926,-1.14179 -1.186909,-2.4495 -1.511597,-3.64113 -0.324699,-1.19162 -0.474183,-2.36527 -0.383365,-3.62562 0.09085,-1.26035 0.417935,-2.64205 0.999041,-3.93691 0.581117,-1.29483 1.416215,-2.50353 2.469404,-3.59115 1.053177,-1.08762 2.324918,-2.05517 3.123905,-2.72854 0.798989,-0.67338 1.125906,-1.05325 1.743319,-2.1238 0.617412,-1.07055 1.525729,-2.83144 2.488194,-4.17811 0.962477,-1.346669 1.9798,-2.279614 3.051124,-3.056478 1.071319,-0.77686 2.197339,-1.398476 3.667999,-1.691909 1.10301,-0.220081 2.40089,-0.255946 3.60129,-0.2527 z"
             id="path4497" />
        </g>
      </g>
    </g>
  </g>
</svg>
