<?xml version="1.0" encoding="UTF-8" standalone="no"?>
<!-- Created with Inkscape (http://www.inkscape.org/) -->

<svg
   xmlns:dc="http://purl.org/dc/elements/1.1/"
   xmlns:cc="http://creativecommons.org/ns#"
   xmlns:rdf="http://www.w3.org/1999/02/22-rdf-syntax-ns#"
   xmlns:svg="http://www.w3.org/2000/svg"
   xmlns="http://www.w3.org/2000/svg"
   xmlns:sodipodi="http://sodipodi.sourceforge.net/DTD/sodipodi-0.dtd"
   xmlns:inkscape="http://www.inkscape.org/namespaces/inkscape"
   version="1.1"
   id="svg2"
   width="667.73334"
   height="661.33331"
   viewBox="0 0 667.73334 661.33331"
   sodipodi:docname="Logo.svg"
   inkscape:version="0.92.1 r15371">
  <metadata
     id="metadata8">
    <rdf:RDF>
      <cc:Work
         rdf:about="">
        <dc:format>image/svg+xml</dc:format>
        <dc:type
           rdf:resource="http://purl.org/dc/dcmitype/StillImage" />
        <dc:title></dc:title>
      </cc:Work>
    </rdf:RDF>
  </metadata>
  <defs
     id="defs6">
    <inkscape:path-effect
       effect="bspline"
       id="path-effect4589"
       is_visible="true"
       weight="33.333333"
       steps="2"
       helper_size="0"
       apply_no_weight="true"
       apply_with_weight="true"
       only_selected="false" />
    <inkscape:path-effect
       effect="bspline"
       id="path-effect4572"
       is_visible="true"
       weight="33.333333"
       steps="2"
       helper_size="0"
       apply_no_weight="true"
       apply_with_weight="true"
       only_selected="false" />
    <inkscape:path-effect
       effect="bspline"
       id="path-effect4532"
       is_visible="true"
       weight="33.333333"
       steps="2"
       helper_size="0"
       apply_no_weight="true"
       apply_with_weight="true"
       only_selected="false" />
    <inkscape:path-effect
       effect="bspline"
       id="path-effect4528"
       is_visible="true"
       weight="33.333333"
       steps="2"
       helper_size="0"
       apply_no_weight="true"
       apply_with_weight="true"
       only_selected="false" />
    <inkscape:path-effect
       effect="bspline"
       id="path-effect4532-3"
       is_visible="true"
       weight="33.333333"
       steps="2"
       helper_size="0"
       apply_no_weight="true"
       apply_with_weight="true"
       only_selected="false" />
    <inkscape:path-effect
       effect="bspline"
       id="path-effect4528-9"
       is_visible="true"
       weight="33.333333"
       steps="2"
       helper_size="0"
       apply_no_weight="true"
       apply_with_weight="true"
       only_selected="false" />
  </defs>
  <sodipodi:namedview
     pagecolor="#ffffff"
     bordercolor="#666666"
     borderopacity="1"
     objecttolerance="10"
     gridtolerance="10"
     guidetolerance="10"
     inkscape:pageopacity="0"
     inkscape:pageshadow="2"
     inkscape:window-width="1366"
     inkscape:window-height="706"
     id="namedview4"
     showgrid="false"
     inkscape:zoom="0.50466897"
     inkscape:cx="294.21422"
     inkscape:cy="327.97009"
     inkscape:window-x="-8"
     inkscape:window-y="-8"
     inkscape:window-maximized="1"
     inkscape:current-layer="svg2" />
  <g
     id="g4594"
     transform="translate(-17.833472,-11.888981)">
    <path
       sodipodi:nodetypes="ccccccscsc"
       inkscape:connector-curvature="0"
       id="path3682"
       d="M 355.56613,94.809848 C 213.04498,94.81031 97.509057,210.23131 97.509268,352.61003 97.509063,494.98875 213.04498,610.40974 355.56613,610.4102 498.08805,610.41083 613.62517,494.98952 613.62497,352.61003 613.62518,210.23054 498.08806,94.809219 355.56613,94.809848 Z m -2.6872,27.001952 c 130.44377,4.90375 232.38401,100.00033 232.38407,227.53003 -6e-5,127.5297 -102.0605,231.9036 -230.40257,231.9034 C 227.91947,574.2398 125.53412,477.64105 124.45783,352.31408 123.45627,235.68805 225.23741,129.5178 352.87893,121.8118 Z"
       style="opacity:1;fill:#ffffff;stroke-width:1.04556453" />
    <path
       id="path4497"
       d="M 354.51367,168.64648 A 180.16747,181.42353 0 0 0 174.34766,350.07031 180.16747,181.42353 0 0 0 354.51367,531.49414 180.16747,181.42353 0 0 0 534.68164,350.07031 180.16747,181.42353 0 0 0 354.51367,168.64648 Z m 1.9375,26.6543 c 0.78102,-0.005 1.56498,0.0145 2.33789,0.0566 3.09167,0.16838 6.0027,0.68456 12.4043,1.95899 6.4016,1.27444 16.29283,3.30675 25.5918,5.91406 9.29896,2.60731 17.96917,5.77494 24.41992,8.69141 6.45076,2.91645 10.60907,5.55458 16.20898,9.38476 5.59991,3.83017 12.63945,8.85379 19.76758,15.57031 7.12812,6.71651 14.34649,15.12834 19.65625,22.33985 5.30975,7.21151 8.7123,13.22308 11.88672,18.93945 3.17443,5.71637 6.12211,11.13948 7.85937,15.48828 1.73725,4.3488 2.26582,7.62747 1.39844,10.64844 -0.86737,3.02097 -3.13302,5.78803 -4.79492,7.45312 -1.66189,1.6651 -2.72303,2.23044 -4.36719,2.78711 -1.64416,0.55668 -3.87065,1.10465 -6.71679,0.18164 -2.84614,-0.92301 -6.30968,-3.31559 -8.7754,-6.04296 -2.46573,-2.72738 -3.93344,-5.78786 -5.2246,-8.9043 -1.29116,-3.11645 -2.44218,-6.39072 -3.77735,-9.22266 -1.33517,-2.83194 -2.97681,-5.51057 -4.02929,-7.35547 -1.05249,-1.8449 -1.6174,-3.02275 -3.2129,-5.38476 -1.5955,-2.36201 -4.22193,-5.9085 -6.85546,-9.04688 -2.63353,-3.13838 -5.27364,-5.86922 -7.62891,-8.18554 -2.35526,-2.31631 -4.4822,-4.27265 -7.1582,-6.62696 -2.67599,-2.3543 -6.01681,-5.21118 -10.40235,-8.32031 -4.38555,-3.10914 -9.81802,-6.46971 -14.79297,-9.23828 -4.97495,-2.76857 -9.49328,-4.94756 -14.30859,-6.7793 -4.81532,-1.83174 -9.92942,-3.31769 -14.05664,-4.3789 -4.12722,-1.0612 -7.27085,-1.69836 -10.58984,-2.22071 -3.319,-0.52235 -6.81592,-0.92988 -10.13868,-1.21875 -3.32277,-0.28888 -6.47426,-0.45848 -9.49609,-1.32617 -3.02184,-0.86769 -6.09696,-2.53328 -7.72266,-4.61523 -1.62571,-2.08194 -2.16356,-4.77549 -2,-7.57618 0.16356,-2.80069 1.02879,-5.70266 2.34961,-7.84179 1.32081,-2.13913 3.09525,-3.51189 5.61914,-4.28711 1.89292,-0.58146 4.20577,-0.82615 6.54883,-0.8418 z m 29.25977,62.23828 c 1.05524,-0.008 2.12455,0.0815 3.2539,0.22461 3.0116,0.38176 6.46062,1.14601 9.96875,3.20117 3.50814,2.05515 7.07595,5.40164 9.67774,8.63086 2.6018,3.22923 4.26112,6.38904 5.65234,10.68164 1.39122,4.29261 2.56324,9.81348 2.91406,14.36328 0.35082,4.54981 -0.11779,8.13255 -1.25781,12.125 -1.14,3.99246 -2.95331,8.39755 -4.70703,11.94922 -1.75373,3.55165 -3.45077,6.25487 -5.87695,8.66211 -2.42618,2.40725 -5.5828,4.52031 -7.86328,5.92969 -2.28051,1.40938 -3.68523,2.11618 -5.23438,2.58594 -1.54916,0.46976 -3.24496,0.70361 -5.58398,0.41015 -2.33902,-0.29346 -5.32191,-1.11657 -8.04102,-2.32031 -2.71913,-1.20374 -5.21645,-2.81329 -7.44726,-4.91406 -2.23083,-2.10077 -4.27671,-4.74412 -5.97266,-7.32813 -1.69595,-2.584 -3.05338,-5.13371 -4.09961,-7.4414 -1.04623,-2.30769 -1.80569,-4.42034 -2.30273,-7.65039 -0.49704,-3.23005 -0.73217,-7.57396 -0.58594,-11.91992 0.14626,-4.34596 0.67227,-8.68952 1.98828,-12.85938 1.31602,-4.16985 3.42079,-8.16063 5.20508,-11.00976 1.78427,-2.84914 3.24499,-4.55208 5.75976,-6.60743 2.51476,-2.05534 6.07985,-4.46216 9.15039,-5.66601 1.9191,-0.7524 3.64362,-1.03428 5.40235,-1.04688 z m -64.4668,0.73438 c 1.05523,-0.008 2.12065,0.0795 3.25,0.22265 3.0116,0.38178 6.46452,1.14797 9.97266,3.20313 3.50814,2.05516 7.07399,5.39966 9.67578,8.6289 2.60179,3.22922 4.26306,6.38904 5.6543,10.68165 1.39121,4.29259 2.56128,9.81542 2.9121,14.36523 0.35082,4.54979 -0.11584,8.13254 -1.25586,12.125 -1.14001,3.99246 -2.95331,8.39756 -4.70703,11.94922 -1.75372,3.55166 -3.45076,6.25487 -5.87695,8.66211 -2.42617,2.40725 -5.58476,4.5203 -7.86523,5.92969 -2.2805,1.40937 -3.68523,2.11422 -5.23438,2.58398 -1.54917,0.46975 -3.24497,0.70362 -5.58398,0.41016 -2.33903,-0.29346 -5.32188,-1.11462 -8.04102,-2.31836 -2.71913,-1.20374 -5.21449,-2.81524 -7.44531,-4.91602 -2.23083,-2.10078 -4.27865,-4.74412 -5.97461,-7.32812 -1.69594,-2.584 -3.0534,-5.13178 -4.09961,-7.43946 -1.04623,-2.30769 -1.80765,-4.4223 -2.30469,-7.65234 -0.49704,-3.23006 -0.73022,-7.57396 -0.58398,-11.91992 0.14624,-4.34595 0.67422,-8.68952 1.99023,-12.85938 1.316,-4.16986 3.41884,-8.16063 5.20313,-11.00976 1.78429,-2.84915 3.24696,-4.55013 5.76172,-6.60547 2.51475,-2.05536 6.07789,-4.46217 9.14843,-5.66602 1.91908,-0.7524 3.64556,-1.03427 5.4043,-1.04687 z m -47.14062,55.76172 c 1.35975,0.0257 2.75609,0.19562 4.11523,0.5332 2.71831,0.67515 5.29239,2.02584 7.71875,3.72852 2.42637,1.70267 4.70711,3.75724 6.60742,5.90039 1.9003,2.14313 3.42095,4.37524 4.91211,7.86914 1.49115,3.4939 2.95185,8.24841 3.36133,12.59375 0.40946,4.34533 -0.23238,8.27945 -1.16797,11.65625 -0.93561,3.3768 -2.16329,6.19536 -3.80078,8.63281 -1.63751,2.43745 -3.68345,4.4904 -5.73047,6.01758 -2.04701,1.5272 -4.09176,2.52583 -6.40234,3.08398 -2.31059,0.55815 -4.88373,0.67535 -7.69141,0.0586 -2.80768,-0.61672 -5.84676,-1.96663 -8.47851,-3.72852 -2.63176,-1.76187 -4.85271,-3.9334 -6.43165,-5.75391 -1.57893,-1.8205 -2.51578,-3.28922 -3.56835,-5.84375 -1.05257,-2.55451 -2.2201,-6.19498 -2.83399,-10.04101 -0.61388,-3.84604 -0.67367,-7.89972 -0.55664,-11.01172 0.117,-3.11199 0.40978,-5.2826 1.14063,-7.66016 0.73081,-2.37756 1.89973,-4.96442 3.39062,-7.22461 1.49089,-2.2602 3.30506,-4.2005 5.20508,-5.63867 1.90001,-1.43817 3.89066,-2.37622 6.3164,-2.8457 1.21285,-0.23474 2.53476,-0.35188 3.89454,-0.32617 z m 165.46093,0.0449 c 1.72168,0.0407 3.37811,0.3679 5.10157,1.05078 2.29796,0.91051 4.71892,2.4561 6.65234,4.49023 1.93344,2.03412 3.38528,4.55873 4.52344,7.30274 1.13815,2.74403 1.96493,5.70864 2.42382,8.54101 0.45891,2.83236 0.54949,5.53325 -0.0586,9.28516 -0.60797,3.75192 -1.91692,8.55363 -3.89258,12.44141 -1.97567,3.88777 -4.61944,6.86121 -7.21289,9.20703 -2.59345,2.34581 -5.13435,4.06334 -7.81836,5.23828 -2.68402,1.17495 -5.50742,1.80605 -8.05078,1.99219 -2.54337,0.18614 -4.80459,-0.074 -7.05273,-0.84766 -2.24816,-0.77365 -4.47945,-2.05885 -6.51953,-4.0918 -2.04006,-2.03296 -3.8842,-4.8102 -5.16407,-7.71484 -1.27987,-2.90463 -1.99348,-5.93335 -2.35351,-8.32031 -0.36001,-2.38696 -0.36449,-4.13066 -0.36719,-5.00196 -0.003,-0.87131 -0.005,-0.8711 0.47461,-2.72265 0.479,-1.85157 1.43623,-5.55434 2.97266,-9.13086 1.53645,-3.57652 3.65292,-7.02849 5.41406,-9.5918 1.76112,-2.56331 3.16784,-4.23873 5.05469,-5.85156 1.88687,-1.61282 4.25705,-3.16519 6.72265,-4.26953 2.46559,-1.10433 5.03059,-1.76487 7.40235,-1.95508 0.59294,-0.0476 1.17415,-0.0644 1.74804,-0.0508 z m -85.15039,30.75781 c 1.28839,0.004 2.54057,0.0244 3.72461,0.0391 4.73614,0.0587 8.36204,0.0562 12.10352,1.28907 3.74147,1.23287 7.60234,3.70014 10.75976,6.04882 3.15745,2.3487 5.61356,4.58118 7.60157,6.8711 1.98802,2.28994 3.50935,4.63899 5.26367,8.04492 1.75431,3.40592 3.74303,7.86899 5.20508,10.51172 1.46205,2.64273 2.39593,3.46267 4.82031,5.18359 2.42439,1.72091 6.23023,4.26865 9.79687,8.4961 3.56665,4.22745 6.84063,10.10163 8.65039,16.38476 1.80978,6.28314 2.16911,13.21082 1.81836,18.61328 -0.35072,5.40245 -1.40386,9.39592 -3.1582,13.03711 -1.75435,3.64119 -4.21094,6.92723 -7.36914,10.45117 -3.15819,3.52394 -7.0165,7.28088 -11.57813,9.92383 -4.56161,2.64295 -9.82251,4.17018 -15.08593,4.875 -5.26342,0.70481 -10.52432,0.58595 -15.08594,-0.29492 -4.56162,-0.88087 -8.42121,-2.52504 -10.99414,-3.58203 -2.57292,-1.05701 -3.85701,-1.52551 -5.66992,-1.4082 -1.81291,0.11731 -4.15122,0.82042 -7.02539,1.85742 -2.87418,1.03701 -6.48244,2.48651 -10.81055,3.1914 -4.32811,0.70489 -9.47306,0.70453 -14.03906,0.13282 -4.56598,-0.57172 -8.76504,-1.77694 -12.56641,-3.65625 -3.80137,-1.8793 -7.3108,-4.46193 -10.41016,-7.51563 -3.09936,-3.05368 -5.78744,-6.57797 -7.93164,-10.46094 -2.14423,-3.88302 -3.82171,-8.33031 -4.86718,-12.38281 -1.04548,-4.05249 -1.52682,-8.04387 -1.23438,-12.33008 0.29243,-4.28623 1.3457,-8.98515 3.2168,-13.38867 1.8711,-4.40353 4.56004,-8.51411 7.95117,-12.21289 3.39111,-3.6988 7.48596,-6.98928 10.05859,-9.2793 2.57265,-2.29004 3.62529,-3.58193 5.61329,-7.22265 1.98799,-3.64073 4.91267,-9.62922 8.01171,-14.20899 3.09903,-4.57978 6.37468,-7.75259 9.82422,-10.39453 3.44951,-2.64196 7.07516,-4.75599 11.81055,-5.7539 3.55154,-0.74844 7.73053,-0.87042 11.5957,-0.85938 z"
       style="opacity:1;fill:#ffffff;fill-opacity:1;stroke:none;stroke-width:0.89037389;stroke-opacity:1"
       inkscape:connector-curvature="0" />
  </g>
</svg>
